<svg xmlns="http://www.w3.org/2000/svg" xml:space="preserve" style="enable-background:new 0 0 847 91.7" viewBox="0 0 847 91.7"><path d="M15.9 10.6H45l11.4 40h1.7l11.4-40h29.1v70.1h-22v-31h-1.8l-8.9 31H48.7l-8.9-31H38v31H16V10.6zM104.5 10.6h23.1v70.1h-23.1V10.6zM131.8 57.2h20.8c.2 4.8 4.3 7.7 14.3 7.8 8.8.1 12.9-2.4 12.9-5.7 0-2.3-1.3-4.6-8.1-5.6l-9-1.4c-13.3-2.2-29.2-3.8-29.2-21.7 0-13.8 11.3-22.4 33.5-22.4 20.1 0 34.1 5.6 33.7 25.6h-20.6c-.8-4.7-4.8-7.6-13.6-7.6-7.7 0-10.8 2.3-10.8 5.5 0 2 1.3 4.4 6.6 5.3l7.4 1.3c13.9 2.3 33 2.8 33 21.9 0 15.3-11.8 22.9-35.9 22.8-24.2-.1-35.6-7.6-35-25.8zM207.1 10.6h63v19.3h-39.9v9.5h38.1V56h-38.1v24.6h-23.1v-70zM275.9 10.6H299v70.1h-23.1V10.6zM378 29.8h-25.2v50.8h-23.1V29.8h-25.2V10.6H378v19.2zM378.4 45.6c0-22.4 15.8-37.4 39.4-37.4 17.1 0 34.6 7.5 37 31.2h-22c-1.9-7.7-7.3-11.3-14.9-11.3-9.2 0-16.4 6.8-16.4 17.4 0 10.6 7.3 17.4 16.4 17.4 7.6 0 13-3.6 14.9-11.4h22c-2.4 24-19.8 31.5-37 31.5-23.7 0-39.4-15-39.4-37.4zM458.9 45.6c0-22.4 15.6-37.4 39.7-37.4s39.7 14.9 39.7 37.4c0 22.4-15.6 37.4-39.7 37.4s-39.7-15-39.7-37.4zm56.5 0c0-11.1-7.6-17.4-16.8-17.4-9.2 0-16.8 6.3-16.8 17.4S489.4 63 498.6 63c9.2 0 16.8-6.3 16.8-17.4zM616.6 45.6c0 20.1-10 35-38.5 35h-35.2v-70h35.2c28.5 0 38.5 14.8 38.5 35zm-23.2 0c0-11.3-6.3-15.7-15.3-15.7h-12v31.4h12c9 0 15.3-4.5 15.3-15.7zM621.6 10.6h63.1v18.5h-40V38h38.5v15.2h-38.5v8.9h40v18.5h-63.1v-70zM740.7 80.6l-9.5-18.1h-17.5v18.1h-23.1v-70h40.1c19.4 0 30.4 8.3 30.4 26.8 0 9.4-4.3 16.1-10.2 20.3l12.5 23h-22.7zm-27-35.3h15.4c5.8 0 8.8-2.8 8.8-7.8s-3-7.8-8.8-7.8h-15.4v15.6zM763.8 57.2h20.8c.3 4.8 4.3 7.7 14.3 7.8 8.8.1 12.9-2.4 12.9-5.7 0-2.3-1.3-4.6-8.1-5.6l-9-1.4c-13.3-2.2-29.2-3.8-29.2-21.7 0-13.8 11.3-22.4 33.5-22.4 20.1 0 34.1 5.6 33.7 25.6h-20.6c-.8-4.7-4.8-7.6-13.6-7.6-7.7 0-10.8 2.3-10.8 5.5 0 2 1.3 4.4 6.6 5.3l7.4 1.3c13.9 2.3 33 2.8 33 21.9 0 15.3-11.8 22.9-35.9 22.8-24.1-.1-35.5-7.6-35-25.8z"/></svg>